<?xml version="1.0" encoding="UTF-8"?>
<!DOCTYPE svg PUBLIC "-//W3C//DTD SVG 1.1//EN" "http://www.w3.org/Graphics/SVG/1.1/DTD/svg11.dtd">
<!-- Icons made by Freepik from www.flaticon.com is licensed by Creative Commons BY 3.0 -->
<svg xmlns="http://www.w3.org/2000/svg" version="1.1" viewBox="0 0 8000 8000" fill="#30A000">
	<path d="M3804,6075c55,55,127,83,198,83c72,0,144,-28,198,-83l1922,-1922c109,-109,109,-287,0,-398l-266,-266c-109,-109,-287,-109,-398,0L4470,4478V766c0,-155,-127,-281,-281,-281h-375c-155,0,-281,125,-281,281v3713l-989,-989c-109,-109,-288,-109,-398,0l-266,266c-109,109,-109,288,0,398L3804,6075z"/>
	<rect x="1182" y="6578" width="5635" height="937" rx="281" ry="281"/>
</svg>
