<?xml version="1.0" encoding="UTF-8"?>
<!DOCTYPE svg PUBLIC "-//W3C//DTD SVG 1.1//EN" "http://www.w3.org/Graphics/SVG/1.1/DTD/svg11.dtd">
<!-- Sources: http://www.flaticon.com/free-icon/rss-feed-button_25367 ; http://www.flaticon.com/packs/font-awesome -->
<svg xmlns="http://www.w3.org/2000/svg" version="1.1" viewBox="0 0 438536 438536" stroke="none">
	<rect x="0" y="0" width="438536" height="438536" rx="81900" ry="81900" fill="#000000"/>
	<g fill="#FFFFFF">
		<circle cx="109634" cy="328897" r="36546"/>
		<path d="M243818,362585c-1902,1902,-4093,2847,-6570,2847h-36540c-2475,0,-4567,-801,-6280,-2423c-1714,-1615,-2667,-3661,-2856,-6139c-2093,-29308,-13608,-54434,-34546,-75377c-20937,-20930,-46059,-32448,-75374,-34543c-2474,-185,-4521,-1137,-6136,-2848c-1619,-1711,-2428,-3806,-2428,-6283v-36543c0,-2475,953,-4665,2855,-6567c1903,-1903,4187,-2758,6854,-2570c44158,2474,81843,19323,113058,50537c31217,31221,48064,68898,50535,113062C246584,358403,245722,360682,243818,362585z"/>
		<path d="M353451,362585c-1903,1902,-4087,2854,-6563,2854h-36546c-2474,0,-4568,-856,-6279,-2567s-2663,-3806,-2854,-6283c-1334,-38827,-11946,-74802,-31833,-107921c-19890,-33120,-46394,-59623,-79514,-79509c-33120,-19892,-69090,-30502,-107921,-31833c-2474,-190,-4567,-1143,-6280,-2854c-1711,-1713,-2568,-3809,-2568,-6283V91644c0,-2474,953,-4661,2855,-6567c1713,-1903,3900,-2758,6567,-2565c29309,950,57624,6276,84936,15987c27312,9704,52056,22980,74235,39825c22176,16842,41686,36354,58525,58529c16841,22175,30122,46921,39831,74230c9702,27315,15037,55631,15984,84938C356407,358690,355556,360874,353451,362585z"/>
	</g>
</svg>
